<svg xmlns="http://www.w3.org/2000/svg" xmlns:xlink="http://www.w3.org/1999/xlink" viewBox="0 0 161.48 215.22"><defs><style>.cls-1{fill:url(#New_Gradient_Swatch_8);}.cls-2{fill:url(#New_Gradient_Swatch_8-2);}.cls-3{fill:url(#New_Gradient_Swatch_8-3);}.cls-4{fill:url(#New_Gradient_Swatch_8-4);}</style><linearGradient id="New_Gradient_Swatch_8" x1="-40.15" y1="207.63" x2="135.95" y2="107.66" gradientUnits="userSpaceOnUse"><stop offset="0" stop-color="#6a4822"/><stop offset="0.28" stop-color="#ebcc92"/><stop offset="0.78" stop-color="#decba5"/><stop offset="1" stop-color="#7f5d33"/></linearGradient><linearGradient id="New_Gradient_Swatch_8-2" x1="-53.63" y1="183.89" x2="122.48" y2="83.91" xlink:href="#New_Gradient_Swatch_8"/><linearGradient id="New_Gradient_Swatch_8-3" x1="-82.55" y1="132.94" x2="93.55" y2="32.96" xlink:href="#New_Gradient_Swatch_8"/><linearGradient id="New_Gradient_Swatch_8-4" x1="-80.54" y1="136.47" x2="95.56" y2="36.5" xlink:href="#New_Gradient_Swatch_8"/></defs><g id="Layer_2" data-name="Layer 2"><g id="Logo"><path class="cls-1" d="M113.05,198.49V92.09H16.73a9.09,9.09,0,1,0,0,9.77h86.56v96.63a9.08,9.08,0,1,0,9.76,0Z"/><path class="cls-2" d="M85.62,198.49V16.73a9.08,9.08,0,1,0-9.76,0V198.49a9.08,9.08,0,1,0,9.76,0Z"/><path class="cls-3" d="M147.92,39.75a9,9,0,0,0-7.65,4.2H58.19V16.73a9.08,9.08,0,1,0-9.77,0v37h91.85a9.08,9.08,0,1,0,7.65-14Z"/><path class="cls-4" d="M152.4,7.84a9.07,9.07,0,0,0-8.5,5.89L99.16,23.22,54.36,68H16.73a9.08,9.08,0,1,0,0,9.76H58.41L104,32.17l41.9-8.89A9.08,9.08,0,1,0,152.4,7.84Z"/></g></g></svg>